<svg width="190" height="190" viewBox="0 0 190 190" fill="none" xmlns="http://www.w3.org/2000/svg">
<path d="M141.649 14.6266C140.439 15.89 140.259 16.4732 140.259 18.6599C140.259 22.11 141.962 24.9284 145.457 27.2123L148.012 28.8645L146.354 30.4194C145.457 31.2941 143.934 32.1202 143.038 32.3632C142.141 32.5576 137.347 32.6061 132.417 32.509C116.196 32.1688 61.3466 32.3146 52.2051 32.7519C42.3466 33.1893 40.4646 32.9463 38.0896 30.8082C37.3726 30.1279 36.7452 29.399 36.7452 29.2532C36.7452 29.0588 37.3726 28.6215 38.1792 28.2327C40.0165 27.3581 42.8844 24.4911 43.7358 22.7903C44.0943 22.0128 44.3632 20.312 44.3632 18.9514C44.3632 16.8133 44.1839 16.2302 43.0188 14.9668C41.7193 13.6061 41.4504 13.509 39.165 13.7033C37.2382 13.8977 36.4316 14.2379 35.3561 15.3555C33.3396 17.3964 32.2193 20.1177 31.9056 23.7136L31.5919 26.8721L27.5589 28.2327C25.3632 28.9616 22.316 29.9821 20.8372 30.468C18.507 31.1969 18.1485 31.5371 18.0141 32.6061C17.9245 33.4322 18.1485 34.0154 18.5967 34.2097C19.3136 34.5013 27.3349 32.4118 31.1886 30.954L32.9811 30.2251L34.5047 32.1688C35.3561 33.335 37.0589 34.6471 38.4929 35.376C40.6886 36.445 41.7193 36.6394 47.5896 36.8338L54.2216 37.0767V99.179V161.233L63.9905 167.55C69.3231 171.049 74.4316 174.304 75.283 174.839C76.1344 175.373 78.1509 176.637 79.7641 177.609C85.2759 181.107 92.0872 185.141 92.4905 185.141C92.7146 185.141 94.7311 184.023 96.9716 182.614C102.976 178.921 119.198 168.668 120.766 167.598C121.528 167.064 123.948 165.46 126.144 164.051L130.177 161.427L130.401 99.0333L130.625 36.688L136.899 36.3964C144.651 36.1049 146.533 35.4732 149.446 32.4118C151.597 30.1279 151.776 30.0307 153.255 30.5166C162.665 33.335 165.443 34.0639 166.071 33.821C166.519 33.6266 166.698 33.0921 166.608 32.2174C166.519 31.0998 166.16 30.7596 164.682 30.2737C163.696 29.9821 160.649 29.0102 157.915 28.087L152.896 26.4834L152.717 23.3248C152.269 17.1049 149.087 13.1202 144.516 13.1202C143.441 13.1202 142.634 13.5576 141.649 14.6266ZM146.264 17.1049C147.653 17.7366 149.222 21.0895 149.222 23.2276C149.222 24.1023 149.087 24.7826 148.908 24.7826C148.774 24.7826 147.788 24.2481 146.757 23.5678C144.382 22.11 143.038 19.3888 143.799 17.688C144.337 16.376 144.696 16.2788 146.264 17.1049ZM40.7783 17.7366C41.3608 18.5141 41.0471 20.6522 40.1957 21.9156C39.5683 22.7417 36.2523 25.2686 35.7594 25.2686C35.1768 25.2686 35.3561 22.4501 36.0283 20.7008C36.6556 19.0486 38.6721 17.0077 39.658 17.0077C39.9717 17.0077 40.4646 17.3478 40.7783 17.7366ZM99.3466 63.8517C107.233 66.1356 113.014 73.0844 114.358 81.8312C115.344 88.1969 113.552 95.0972 109.16 101.754C105.351 107.537 97.7783 114.243 92.2216 116.77C91.0117 117.304 90.0707 117.887 90.0707 118.033C90.0707 118.616 93.79 122.261 95.8962 123.767C99.5707 126.44 103.38 128.238 106.472 128.772C109.922 129.356 110.863 130.084 111.625 132.514C112.566 135.721 109.922 142.767 107.278 143.836C101.991 146.023 92.8042 140.095 85.9481 130.084C84.6933 128.286 83.5283 126.829 83.3042 126.829C82.8113 126.829 82.3183 132.854 82.632 134.798C83.2594 138.297 81.0636 140.435 76.8514 140.435C73.8042 140.435 71.6084 139.414 70.2193 137.325C69.3679 136.013 69.2334 135.235 69.2783 131.445C69.3679 127.023 70.7122 119.783 72.5495 114.049L73.4457 111.279L72.4599 109.432C71.1155 106.954 71.0707 102.192 72.415 100.248C73.1768 99.1304 73.7146 98.8875 75.2382 98.8875C76.224 98.8875 77.0754 98.8875 77.0754 98.8389C77.0754 98.8389 77.9716 96.1177 79.0023 92.7647C81.0636 86.4476 82.632 83.1918 84.3349 81.9284C86.2169 80.4706 89.2641 81.1509 91.5495 83.4834C94.4174 86.399 94.8207 89.6061 92.9386 94.1253C91.5047 97.5755 90.0707 101.949 90.0707 102.872C90.0707 103.99 92.5353 101.9 97.2853 96.6522C102.528 90.9668 105.172 86.0102 104.724 82.6087C104.366 79.6445 102.618 77.5064 99.6155 76.2916C97.4198 75.3683 96.3891 75.2711 92.9386 75.4655C87.8301 75.8056 86.2169 76.5345 82.6768 80.2276C80.4363 82.5601 79.4504 83.2404 78.1061 83.3862C73.5801 84.0179 69.3231 77.9923 70.533 72.6957C71.2051 69.7315 78.0613 64.7749 82.9009 63.7059C84.2452 63.4143 85.7688 63.0742 86.2617 62.977C87.9198 62.5396 96.9716 63.1714 99.3466 63.8517Z" fill="#CD031B"/>
</svg>
